<svg height="511pt" viewBox="-41 1 511 511.99895" width="511pt" xmlns="http://www.w3.org/2000/svg"><path d="m429.398438 255.21875s-66.015626-25.792969-28.90625-97.210938c35.871093-69.03125 1.917968-120.511718-32.902344-114.246093-5.539063-21.757813-42.367188-44.253907-82.910156-16.917969-51.117188 34.464844-69.574219-26.84375-69.574219-26.84375s-18.460938 61.308594-69.574219 26.84375c-40.648438-27.40625-77.570312-4.722656-82.960938 17.089844-37.132812-8.832032-69.164062 44.796875-33.164062 114.074218 37.109375 71.417969-28.90625 97.210938-28.90625 97.210938s66.015625 25.789062 28.90625 97.207031c-35.855469 69-16.71875 126.140625 32.867188 114.269531 4.136718 22.207032 41.753906 46.441407 83.257812 18.460938 51.113281-34.464844 69.574219 26.84375 69.574219 26.84375s18.457031-61.308594 69.574219-26.84375c41.398437 27.910156 78.929687 3.867188 83.222656-18.296875 48.515625 6.582031 68.3125-45.683594 32.589844-114.433594-37.109376-71.417969 28.90625-97.207031 28.90625-97.207031zm0 0" fill="#d84f1e"/><path d="m107.667969 482.03125c-17.089844 0-28.546875-10.773438-29.933594-18.214844v-.003906c-1.648437-8.847656-10.371094-14.507812-19.125-12.414062-3.152344.757812-6.140625 1.140624-8.878906 1.140624-7.894531 0-13.644531-3.152343-17.578125-9.632812-8.597656-14.152344-8.464844-45.375 11.207031-83.226562 13.90625-26.769532 16.78125-51.453126 8.539063-73.371094-5.132813-13.65625-13.835938-23.84375-22.28125-31.09375 8.445312-7.25 17.148437-17.4375 22.28125-31.089844 8.242187-21.921875 5.367187-46.605469-8.539063-73.371094-18.859375-36.296875-15.941406-65.105468-6.921875-79.957031 2.742188-4.515625 8.746094-12.089844 18.144531-12.089844 1.417969 0 2.882813.175781 4.351563.527344 8.398437 1.996094 16.835937-3.148437 18.90625-11.527344v-.003906c1.835937-7.433594 13.222656-17.734375 29.828125-17.734375 9.535156 0 19.3125 3.335938 29.070312 9.914062 12.992188 8.757813 25.734375 13.199219 37.871094 13.199219 17.761719 0 31.144531-9.222656 40.492187-20.519531 9.351563 11.300781 22.730469 20.519531 40.492188 20.519531h.007812c12.140626 0 24.882813-4.441406 37.871094-13.199219 9.753906-6.578124 19.535156-9.914062 29.066406-9.914062 16.515626 0 27.925782 10.261719 29.8125 17.671875 2.035157 7.996094 9.902344 13.058594 18.023438 11.597656.988281-.175781 1.988281-.269531 2.972656-.269531 7.265625 0 14.355469 4.8125 19.449219 13.203125 3.519531 5.792969 7.628906 15.914063 7.234375 31.222656-.382812 14.933594-4.925781 30.871094-13.496094 47.359375-13.90625 26.769532-16.78125 51.453125-8.539062 73.371094 5.132812 13.65625 13.835937 23.84375 22.28125 31.09375-8.445313 7.25-17.148438 17.433594-22.28125 31.089844-8.238282 21.921875-5.367188 46.605468 8.539062 73.371094 20.425782 39.304687 19.085938 67.496093 11.023438 80.773437-4.597656 7.566406-11.667969 11.242187-21.628906 11.242187 0 0 0 0-.003907 0-1.882812 0-3.871093-.140624-5.910156-.417968-8.265625-1.121094-15.96875 4.40625-17.554687 12.59375-1.4375 7.421875-12.917969 18.160156-29.921876 18.160156-9.53125 0-19.3125-3.335938-29.066406-9.914062-12.992187-8.757813-25.734375-13.199219-37.871094-13.199219-17.765624 0-31.144531 9.21875-40.496093 20.519531-9.347657-11.300781-22.730469-20.519531-40.496094-20.519531-12.136719 0-24.878906 4.441406-37.871094 13.199219-9.753906 6.578124-19.535156 9.914062-29.070312 9.914062zm0 0" fill="#f97338"/><path d="m76.140625 77.402344h269.300781v355.46875h-269.300781zm0 0" fill="#ccd2d6"/><path d="m91.863281 93.128906h237.851563v324.015625h-237.851563zm0 0" fill="#fff"/><path d="m345.441406 438.113281h-269.300781c-2.898437 0-5.242187-2.347656-5.242187-5.242187v-355.46875c0-2.894532 2.34375-5.242188 5.242187-5.242188h269.300781c2.894532 0 5.242188 2.347656 5.242188 5.242188v355.46875c0 2.894531-2.347656 5.242187-5.242188 5.242187zm-264.058594-10.484375h258.816407v-344.984375h-258.816407zm0 0" fill="#d84f1e"/></svg>