<svg enable-background="new 0 0 512 512" viewBox="0 0 512 512" xmlns="http://www.w3.org/2000/svg"><path d="m382.933 73.6h58.667v102.4h-58.667z" fill="#f05540"/><path d="m360.533 21.333h103.467v55.467h-103.467z" fill="#f3705a"/><path d="m44.8 276.267v235.733h418.133v-235.733c-82.133-82.133-128-128-209.067-209.067-81.066 82.133-126.933 128-209.066 209.067z" fill="#ffd15c"/><path d="m464 276.267c-82.133-82.133-128-128-209.067-209.067-41.6 40.533-73.6 72.533-105.6 104.533s-64 64-104.533 104.533v48l209.067-209.067 209.067 209.067v6.4-54.4h1.066z" fill="#f7b64c"/><path d="m216.533 512h-125.866v-123.733c0-35.2 28.8-62.933 62.933-62.933 35.2 0 62.933 28.8 62.933 62.933z" fill="#415a6b"/><path d="m253.867 325.333h164.267v144h-164.267z" fill="#344a5e"/><path d="m270.933 342.4h56.533v109.867h-56.533z" fill="#8ad7f8"/><path d="m344.533 342.4h56.533v109.867h-56.533z" fill="#8ad7f8"/><path d="m502.4 232.533-222.933-222.933c-12.8-12.8-35.2-12.8-48 0l-221.867 222.933c-12.8 12.8-12.8 35.2 0 48s35.2 12.8 48 0l198.4-198.4 198.4 198.4c12.8 12.8 35.2 12.8 48 0 12.8-13.866 12.8-35.2 0-48z" fill="#f3705a"/></svg>