<svg height="496pt" viewBox="-48 0 496 496" width="496pt" xmlns="http://www.w3.org/2000/svg"><path d="m256 392h-112l8-32h96zm0 0" fill="#b47e67"/><path d="m136 296-40 192h32l40-192" fill="#a36d56"/><path d="m232 296 40 192h32l-40-192" fill="#a36d56"/><path d="m8 264h384v32h-384zm0 0" fill="#bd3d47"/><path d="m8 280h384v16h-384zm0 0" fill="#df6a66"/><path d="m136 40v-32h128v32" fill="#4a98c5"/><path d="m136 40v-16h128v16" fill="#5dbbd3"/><path d="m40 40h320v224h-320zm0 0" fill="#f19850"/><path d="m72 72h256v160h-256zm0 0" fill="#fff"/><path d="m272 144c0 8.835938-7.164062 16-16 16s-16-7.164062-16-16 7.164062-16 16-16 16 7.164062 16 16zm0 0" fill="#f19850"/><path d="m328 208-24-24-40 48h64" fill="#5da351"/><path d="m157.335938 208 42.664062-32 56 56h-88" fill="#74c865"/><path d="m256 240h-88v-16h68.6875l-37.441406-37.441406-37.117188 27.832031-9.59375-12.796875 42.664063-32c3.175781-2.386719 7.640625-2.074219 10.457031.742188l56 56c2.289062 2.289062 2.976562 5.726562 1.734375 8.71875-1.230469 2.992187-4.160156 4.945312-7.390625 4.945312zm0 0"/><path d="m72 232 64-72 64 72" fill="#5da351"/><path d="m360 272h-320c-4.425781 0-8-3.585938-8-8v-224c0-4.414062 3.574219-8 8-8h320c4.425781 0 8 3.585938 8 8v224c0 4.414062-3.574219 8-8 8zm-312-16h304v-208h-304zm0 0"/><path d="m328 240h-256c-4.425781 0-8-3.585938-8-8v-160c0-4.414062 3.574219-8 8-8h256c4.425781 0 8 3.585938 8 8v160c0 4.414062-3.574219 8-8 8zm-248-16h240v-144h-240zm0 0"/><path d="m194.023438 237.320312-58.023438-65.28125-58.023438 65.273438-11.953124-10.632812 64-72c3.03125-3.414063 8.921874-3.414063 11.953124 0l64 72zm0 0"/><path d="m270.152344 237.121094-12.296875-10.242188 40-48c1.449219-1.726562 3.535156-2.765625 5.792969-2.871094 2.273437-.046874 4.441406.753907 6.015624 2.335938l24 24-11.3125 11.3125-17.808593-17.808594zm0 0"/><path d="m256 168c-13.230469 0-24-10.769531-24-24s10.769531-24 24-24 24 10.769531 24 24-10.769531 24-24 24zm0-32c-4.414062 0-8 3.59375-8 8s3.585938 8 8 8 8-3.59375 8-8-3.585938-8-8-8zm0 0"/><path d="m392 304h-384c-4.425781 0-8-3.585938-8-8v-32c0-4.414062 3.574219-8 8-8h384c4.425781 0 8 3.585938 8 8v32c0 4.414062-3.574219 8-8 8zm-376-16h368v-16h-368zm0 0"/><path d="m272 40h-16v-24h-112v24h-16v-32c0-4.414062 3.574219-8 8-8h128c4.425781 0 8 3.585938 8 8zm0 0"/><path d="m128 496h-32c-2.40625 0-4.6875-1.089844-6.199219-2.953125-1.519531-1.863281-2.121093-4.320313-1.625-6.679687l40-192 15.65625 3.265624-38 182.367188h15.65625l38.679688-185.632812 15.65625 3.265624-40 192c-.761719 3.703126-4.03125 6.367188-7.824219 6.367188zm0 0"/><path d="m304 496h-32c-3.792969 0-7.0625-2.664062-7.832031-6.367188l-40-192 15.65625-3.265624 38.679687 185.632812h15.65625l-37.992187-182.367188 15.65625-3.265624 40 192c.496093 2.359374-.105469 4.816406-1.625 6.679687-1.511719 1.863281-3.792969 2.953125-6.199219 2.953125zm0 0"/><path d="m152 352h96v16h-96zm0 0"/><path d="m144 384h112v16h-112zm0 0"/></svg>