<svg enable-background="new 0 0 512 512" viewBox="0 0 512 512" xmlns="http://www.w3.org/2000/svg"><path d="m311.697 273.599c7.071 0 13.821-2.949 18.626-8.137l8.296-8.958c6.109-6.596 9.503-15.254 9.503-24.244v-22.323c0-10.672-7.155-20.018-17.456-22.804l-41.772-11.296c-4.191-1.133-7.102-4.936-7.102-9.278v-17.013l-3.373.264c16.545-11.966 27.835-35.817 27.835-63.307 0-26.107-9.896-51.281-24.893-65.239-18.581-20.527-69.913-10.463-79.116 10.204-31.203 2-42.795 27.999-22.796 54.879.667 36.214 31.278 39.143 31.278 39.143s.333.13.929.357l-.645.373c5.894 12.109 14.408 21.599 24.425 26.95l-4.643.363v16.937c0 2.236-1.294 4.27-3.318 5.219l-66.153 30.988c-12.097 5.666-19.823 17.818-19.823 31.176v41.507c0 6.986 5.663 12.648 12.648 12.648h15.4v-23.999l1.177.066 18.07 68.265s-22.666 54.665-22.666 81.33 35.999 84.33 35.999 84.33h114.662s32.233-79.092 19.332-122.328c-5.505-18.448-30.947-51.998-30.947-51.998l4.948-54.075z" fill="#efeeee"/><path d="m311.697 273.599c7.071 0 13.821-2.949 18.626-8.137l8.296-8.958c6.109-6.596 9.503-15.254 9.503-24.244v-22.323c0-10.672-7.155-20.018-17.456-22.804l-41.772-11.296c-4.191-1.133-7.102-4.936-7.102-9.278v-15.545c-16.13 4.406-33.227 6.177-49.479 2.398l-1.519.119v16.937c0 2.236-1.294 4.27-3.318 5.219l-66.153 30.988c-12.097 5.666-19.823 17.818-19.823 31.176v41.507c0 6.986 5.663 12.648 12.648 12.648h15.4v-23.999l1.177.066 18.07 68.265s-22.666 54.665-22.666 81.33 35.999 84.33 35.999 84.33h114.662s32.233-79.092 19.332-122.328c-5.505-18.448-30.947-51.998-30.947-51.998l4.948-54.075h1.574z" fill="#d1d3d4"/><path d="m215.522 484.876c10.012-3.256 17.643-8.88 25.442-15.805 7.358-6.535 14.312-13.506 21.635-20.075 6.332-5.679 12.219-11.744 17.211-18.654 9.223-12.768 14.95-27.461 19.531-42.427 4.71-15.389 10.805-30.209 16.532-45.206-1.5-2.212-2.937-4.287-4.235-6.129-4.113 3.281-8.409 6.355-12.534 9.574-22.739 17.739-39.486 41.995-62.571 59.447-20.49 15.49-43.713 22.278-68.448 24.99 5.067 19.513 18.81 45.228 27.204 59.877 6.727-1.931 13.573-3.426 20.233-5.592z" fill="#efeeee"/><path d="m216.509 292.342h-11.716c-5.523 0-10-4.477-10-10s4.477-10 10-10h11.716c7.555 0 14.449-3.828 18.443-10.241l3.352-5.38c2.92-4.689 9.087-6.122 13.774-3.201 4.688 2.92 6.121 9.087 3.201 13.774l-3.352 5.38c-7.67 12.316-20.91 19.668-35.418 19.668z"/><path d="m239.507 410.485c-3.45 0-6.809-1.778-8.663-4.97-2.773-4.776-1.172-10.883 3.604-13.655l.045-.026c4.776-2.772 10.896-1.149 13.668 3.626 2.773 4.776 1.149 10.896-3.626 13.668-1.582.919-3.316 1.357-5.028 1.357z"/><path d="m377.439 511.998h-.192c-5.523 0-10-4.477-10-10s4.477-10 10-10h.192c5.523 0 10 4.477 10 10-.001 5.523-4.478 10-10 10z"/><path d="m337.659 272.257 8.296-8.958c7.846-8.471 12.166-19.493 12.166-31.039v-22.322c0-15.154-10.217-28.501-24.846-32.457l-41.485-11.218v-14.73c2.583-2.583 5.033-5.445 7.32-8.59 11.055-15.2 17.142-35.244 17.142-56.439 0-28.47-10.637-56.118-27.781-72.278-10.869-11.704-30.293-16.61-52.087-13.129-14.416 2.302-31.58 8.967-40.199 20.969-15.68 2.355-27.654 10.406-33.29 22.579-6.216 13.426-3.763 29.713 6.683 45.079 1.82 28.824 20.766 41.093 34.401 44.666 4.617 8.409 10.335 15.441 16.812 20.87v12.516l-63.713 29.846c-15.54 7.279-25.581 23.07-25.581 40.23v41.507c0 12.488 10.161 22.648 22.648 22.648h15.215l8.912 33.666c-4.945 12.376-22.145 57.21-22.145 81.996 0 20.552 17.264 54.467 28.48 74.33h-50.045c-5.523 0-10 4.477-10 10s4.477 10 10 10h213.557c5.523 0 10-4.477 10-10s-4.477-10-10-10h-16.946c8.86-25.413 25.019-80.03 14.528-115.188-5.021-16.827-23.383-42.746-30.223-52.043l3.845-42.017c6.98-1.547 13.415-5.182 18.336-10.494zm-41.913-195.5c.334 3.226.507 6.486.507 9.749 0 17.001-4.729 32.868-13.317 44.676-7.89 10.849-18.075 16.823-28.681 16.823-11.645 0-22.788-7.302-30.746-19.853 8.191-7.575 16.432-19.489 15.711-33.542 14.404-3.482 25.159-15.352 30.476-33.863 10.301 3.651 20.532 11.241 26.05 16.01zm-78.052 12.945c5.146 11.199-4.253 20.913-9.371 25.132-6.134-1.792-18.496-7.967-18.877-28.67-.038-2.087-.729-4.11-1.975-5.785-7.475-10.046-9.817-20.008-6.426-27.333 3.092-6.68 11.052-10.907 21.838-11.599 3.71-.238 6.983-2.515 8.496-5.911 2.429-5.455 12.881-12.251 28.16-14.692 3.502-.559 6.929-.831 10.203-.831 10.594 0 19.571 2.843 24.205 7.962.191.211.392.415.601.609 5.093 4.74 9.49 11.04 12.967 18.308-7.418-3.965-15.881-7.244-24.47-8.049-5.246-.483-9.968 3.166-10.806 8.364-2.22 13.766-8.28 29.852-24.54 28.36-3.56-.333-7.018 1.265-9.081 4.179-2.062 2.915-2.415 6.712-.924 9.956zm99.138 273.022c4.382 7.321 8.124 14.498 9.708 19.806 9.76 32.712-9.642 90.491-16.634 109.471h-82.375c53.261-26.881 74.895-66.134 83.542-96.267 3.411-11.889 5.079-23.137 5.759-33.01zm-5.135-99.125h-42.076c-5.523 0-10 4.477-10 10s4.477 10 10 10h29.546l-3.872 42.312c-1.072 3.641-9.13 27.778-39.611 51.68-4.346 3.408-5.107 9.694-1.699 14.039 3.408 4.347 9.695 5.106 14.039 1.699 12.486-9.791 21.752-19.682 28.594-28.65-.719 7.786-2.16 16.451-4.768 25.539-11.99 41.779-42.288 72.506-90.087 91.442-7.602-13.556-16.771-31.494-21.825-46.249 14.045-3.873 27.302-8.467 39.494-13.726 5.071-2.188 7.409-8.072 5.221-13.142-2.188-5.072-8.073-7.408-13.142-5.221-10.905 4.704-22.757 8.85-35.336 12.384.936-20.893 15.956-61.293 21.857-75.535.839-2.024.99-4.27.429-6.388l-18.07-68.265c-1.185-4.478-5.227-7.426-9.65-7.431-.327 0-.655.016-.985.048-.043.004-.087.009-.13.014-.237.026-.474.059-.712.103-4.878.83-9.366 4.846-9.366 9.759v13.999h-5.401c-1.461 0-2.649-1.188-2.649-2.649v-41.507c0-9.436 5.521-18.117 14.065-22.12l66.154-30.989c5.513-2.583 9.076-8.186 9.076-14.273v-4.378c4.363 1.253 8.871 1.91 13.462 1.91 6.044 0 11.928-1.125 17.536-3.259v1.817c0 8.838 5.959 16.623 14.491 18.931l41.772 11.296c5.928 1.603 10.067 7.011 10.067 13.15v22.322c0 6.491-2.429 12.687-6.839 17.449l-8.296 8.957c-2.902 3.134-7.017 4.932-11.289 4.932z"/></svg>