<svg height="511pt" viewBox="-1 1 511 511.999" width="511pt" xmlns="http://www.w3.org/2000/svg"><path d="m435.5 187.078125c-37.109375 0-67.195312 30.082031-67.195312 67.191406 0 10.015625 2.207031 19.511719 6.136718 28.050781l21.753906 26.433594c11.054688 7.988282 24.625 12.710938 39.304688 12.710938 37.109375 0 67.191406-30.085938 67.191406-67.195313 0-37.105469-30.082031-67.191406-67.191406-67.191406zm0 0" fill="#707487"/><path d="m398.308594 254.269531c0-31.949219 22.304687-58.671875 52.191406-65.492187-4.824219-1.101563-9.84375-1.699219-15-1.699219-37.109375 0-67.195312 30.082031-67.195312 67.191406 0 10.015625 2.207031 19.511719 6.136718 28.046875l21.753906 26.4375c11.054688 7.984375 24.625 12.707032 39.304688 12.707032 5.15625 0 10.175781-.597657 15-1.699219-29.886719-6.816407-52.191406-33.539063-52.191406-65.492188zm0 0" fill="#52586d"/><path d="m435.5 214.660156c-22.238281 0-40.265625 18.027344-40.265625 40.265625 0 .195313.011719.390625.015625.589844l10.355469 26.378906c7.367187 8.164063 18.03125 13.292969 29.894531 13.292969 22.234375 0 40.261719-18.027344 40.261719-40.261719 0-22.238281-18.023438-40.265625-40.261719-40.265625zm0 0" fill="#52586d"/><path d="m425.234375 254.925781c0-16.933593 10.460937-31.417969 25.265625-37.367187-4.636719-1.863282-9.695312-2.898438-15-2.898438-22.238281 0-40.265625 18.027344-40.265625 40.265625 0 .195313.011719.390625.015625.589844l10.355469 26.378906c7.367187 8.164063 18.03125 13.292969 29.894531 13.292969 5.304688 0 10.363281-1.035156 15-2.898438-14.804688-5.949218-25.265625-20.429687-25.265625-37.363281zm0 0" fill="#434a5e"/><path d="m308.164062 7.796875h-17.410156c-7.296875 0-13.214844 5.917969-13.214844 13.214844 0 7.300781 5.917969 13.214843 13.214844 13.214843h10.523438v133.140626c0 32.347656-11.894532 63.648437-33.019532 87.832031 5.046876.214843 10.011719 2.339843 13.710938 6.339843 3.207031 3.464844 4.929688 7.769532 5.222656 12.136719 25.898438-29.113281 40.511719-67.066406 40.511719-106.304687v-140.035156c.003906-10.773438-8.765625-19.539063-19.539063-19.539063zm0 0" fill="#e4eaf8"/><path d="m54.484375 260.859375c3.636719-3.585937 8.359375-5.414063 13.148437-5.5625-21.175781-24.195313-33.101562-55.539063-33.101562-87.925781v-133.144532h10.523438c7.296874 0 13.214843-5.914062 13.214843-13.214843 0-7.296875-5.917969-13.214844-13.214843-13.214844h-17.410157c-10.773437 0-19.542969 8.765625-19.542969 19.539063v140.03125c0 39.234374 14.613282 77.1875 40.511719 106.304687.308594-4.660156 2.246094-9.242187 5.871094-12.8125zm0 0" fill="#e4eaf8"/><path d="m318.136719 167.367188v-122.992188c0-5.605469-4.542969-10.148438-10.148438-10.148438-7.113281 0-13.234375-5.46875-13.570312-12.574218-.359375-7.589844 5.6875-13.855469 13.199219-13.855469h-16.488282c-7.117187 0-13.238281 5.46875-13.574218 12.578125-.359376 7.585938 5.691406 13.851562 13.199218 13.851562h10.523438v133.140626c0 32.347656-11.894532 63.652343-33.019532 87.832031 5.046876.214843 10.011719 2.339843 13.710938 6.339843 3.207031 3.464844 4.929688 7.769532 5.222656 12.136719 3.753906-4.222656 7.269532-8.640625 10.542969-13.210937-.59375-.550782-1.214844-1.058594-1.855469-1.523438-4.566406-3.308594-5.8125-9.554687-2.542968-14.152344 15.964843-22.4375 24.800781-49.542968 24.800781-77.421874zm0 0" fill="#d8dce5"/><path d="m24.964844 167.367188v-140.03125c0-10.773438 8.765625-19.539063 19.542968-19.539063h-16.863281c-10.773437 0-19.542969 8.765625-19.542969 19.539063v140.03125c0 39.234374 14.613282 77.1875 40.511719 106.304687.308594-4.660156 2.246094-9.242187 5.871094-12.8125.144531-.144531.300781-.265625.449219-.402344-19.28125-26.949219-29.96875-59.546875-29.96875-93.089843zm0 0" fill="#d8dce5"/><path d="m434.980469 241.964844c-35.957031 0-65.214844 29.253906-65.214844 65.210937v76.867188c0 52.011719-42.3125 94.324219-94.324219 94.324219-52.011718 0-94.324218-42.3125-94.324218-94.324219v-8.003907c-3.359376 3.808594-8.332032 6.164063-13.855469 5.96875-5.050781-.179687-9.496094-2.554687-12.574219-6.15625v8.191407c0 66.582031 54.167969 120.753906 120.753906 120.753906 66.585938 0 120.757813-54.171875 120.757813-120.753906v-76.867188c0-21.386719 17.394531-38.785156 38.78125-38.785156 7.296875 0 13.214843-5.914063 13.214843-13.214844 0-7.296875-5.917968-13.210937-13.214843-13.210937zm0 0" fill="#00aaf0"/><path d="m305.519531 494.777344c-31.320312 0-59.890625-11.984375-81.371093-31.609375-25.882813-16.839844-43.03125-46.015625-43.03125-79.125v-8.003907c-3.359376 3.808594-8.332032 6.164063-13.855469 5.96875-5.050781-.179687-9.496094-2.554687-12.574219-6.15625v8.191407c0 66.582031 54.167969 120.753906 120.753906 120.753906 18.921875 0 36.839844-4.378906 52.796875-12.171875-7.359375 1.40625-14.953125 2.152344-22.71875 2.152344zm0 0" fill="#039add"/><path d="m282.96875 260.539062c-7.433594-8.03125-19.972656-8.523437-28.011719-1.089843-23.480469 21.722656-55.042969 34.683593-87.054687 34.683593-31.914063 0-63.386719-12.890624-86.839844-34.484374-7.796875-7.183594-20.027344-7.230469-27.578125.210937-8.109375 7.992187-7.828125 21.039063.433594 28.683594 25.210937 23.320312 57.632812 39.066406 91.222656 43.671875 2.945313.402344 5.144531 2.910156 5.144531 5.878906v27.882812c0 9.550782 7.429688 17.691407 16.976563 18.027344 10.023437.355469 18.261719-7.664062 18.261719-17.605468v-28.304688c0-2.96875 2.199218-5.476562 5.140624-5.878906 33.589844-4.605469 66.011719-20.347656 91.214844-43.664063 8.039063-7.433593 8.527344-19.972656 1.089844-28.011719zm0 0" fill="#00c3ff"/><path d="m170.359375 353.761719v-27.878907c0-2.972656-2.199219-5.476562-5.144531-5.882812-33.589844-4.605469-66.011719-20.351562-91.21875-43.671875-6.21875-5.75-7.914063-14.5625-4.917969-21.976563-5.597656-.5-11.339844 1.3125-15.59375 5.507813-8.109375 7.992187-7.828125 21.039063.4375 28.683594 25.207031 23.320312 57.628906 39.066406 91.21875 43.671875 2.945313.40625 5.144531 2.910156 5.144531 5.882812v27.878906c0 9.554688 7.429688 17.691407 16.976563 18.03125 8.242187.292969 15.261719-5.082031 17.503906-12.523437-8.273437-1.5625-14.40625-9.046875-14.40625-17.722656zm0 0" fill="#00aaf0"/><path d="m435.394531 179.933594c-41.183593 0-74.691406 33.507812-74.691406 74.691406 0 9.777344 1.878906 19.253906 5.558594 28.230469-2.644531 7.527343-4.097657 15.605469-4.097657 24.023437v76.863282c0 47.875-38.949218 86.828124-86.824218 86.828124s-86.824219-38.953124-86.824219-86.828124v-5.410157c2.867187-4.148437 4.40625-9.0625 4.40625-14.230469v-24.941406c34.878906-5.054687 66.996094-20.390625 92.949219-44.398437 5.257812-4.863281 8.339844-11.453125 8.722656-18.585938 26.140625-30.421875 40.507812-69.046875 40.507812-109.101562v-26.636719c0-4.144531-3.355468-7.5-7.5-7.5-4.140624 0-7.5 3.355469-7.5 7.5v26.636719c0 33.148437-10.808593 65.230469-30.660156 91.601562-2.214844-3.101562-5.34375-5.851562-8.519531-7.679687 17.964844-24.238282 27.75-53.632813 27.75-83.921875v-133.144531c0-4.144532-3.355469-7.5-7.5-7.5h-10.519531c-3.152344 0-5.714844-2.5625-5.714844-5.714844s2.5625-5.714844 5.714844-5.714844h17.410156c6.636719 0 12.039062 5.402344 12.039062 12.039062v78.394532c0 4.144531 3.355469 7.503906 7.5 7.503906 4.144532 0 7.5-3.359375 7.5-7.503906v-78.394532c0-14.910156-12.128906-27.039062-27.039062-27.039062h-17.410156c-11.421875 0-20.714844 9.292969-20.714844 20.714844s9.292969 20.714844 20.714844 20.714844h3.019531v125.644531c0 29.382812-10.3125 57.828125-29.09375 80.457031-5.710937.570312-11.289063 2.925781-15.8125 7.113281-17.988281 16.640625-40.292969 27.207031-64.492187 30.558594-4.105469.566406-6.972657 4.351563-6.402344 8.457031.566406 4.105469 4.367187 6.976563 8.457031 6.398438 27.257813-3.769532 52.371094-15.667969 72.621094-34.402344 4.960937-4.585938 12.84375-4.355469 17.480469.761719 4.558593 5.003906 4.226562 12.734375-.746094 17.332031-24.015625 22.21875-53.804688 36.304688-86.140625 40.738281-6.625.910157-11.621094 6.632813-11.621094 13.3125v26.300781c0 5.871094-4.914063 10.285157-10.464844 10.113282-.007812 0-.019531 0-.03125 0-5.34375-.1875-9.742187-4.929688-9.742187-10.535156v-25.878907c0-6.679687-5-12.402343-11.628906-13.3125-32.335938-4.433593-62.125-18.523437-86.144532-40.746093-5.246094-4.855469-5.203125-12.96875-.265625-17.839844 4.554688-4.488282 12.304688-4.570313 17.234375-.03125 20.210938 18.609375 45.242188 30.433594 72.386719 34.1875 4.101563.570312 7.890625-2.296875 8.460937-6.398438.566407-4.101562-2.296874-7.890625-6.402343-8.457031-24.105469-3.339844-46.332031-13.839844-64.28125-30.367187-4.597657-4.230469-10.222657-6.640626-15.972657-7.246094-18.8125-22.640625-29.140624-51.101563-29.140624-80.515625v-125.644531h3.019531c11.421875 0 20.714843-9.292969 20.714843-20.714844s-9.292968-20.714844-20.714843-20.714844h-17.410157c-14.910156 0-27.039062 12.128906-27.039062 27.039062v140.03125c0 40.054688 14.367188 78.675782 40.5 109.09375.378906 7.136719 3.445312 13.707032 8.722656 18.585938 25.960938 24.019531 58.074219 39.355469 92.957032 44.410156v24.519532c0 5.394531 1.625 10.386718 4.402343 14.5v5.5625c0 70.722656 57.535157 128.257812 128.253907 128.257812 70.722656 0 128.257812-57.535156 128.257812-128.257812v-61.53125c9.878906 4.671874 20.667969 7.109374 31.800781 7.109374 41.1875 0 74.695313-33.507812 74.695313-74.695312 0-41.183594-33.507813-74.691406-74.695313-74.691406zm-389.242187 78.730468c-19.84375-26.367187-30.652344-58.445312-30.652344-91.589843v-140.035157c0-6.636718 5.402344-12.039062 12.039062-12.039062h17.410157c3.152343 0 5.714843 2.5625 5.714843 5.714844s-2.5625 5.714844-5.714843 5.714844h-10.519531c-4.144532 0-7.5 3.355468-7.5 7.5v133.144531c0 30.296875 9.78125 59.691406 27.75 83.925781-3.175782 1.816406-6.144532 4.394531-8.527344 7.664062zm342.441406 48.214844v76.863282c0 62.449218-50.808594 113.257812-113.257812 113.257812-60.824219 0-110.605469-48.199219-113.152344-108.414062 3.90625.894531 7.878906.800781 11.4375-.039063 2.519531 53.925781 47.179687 97.023437 101.714844 97.023437 56.148437 0 101.828124-45.679687 101.828124-101.828124v-76.863282c0-31.855468 25.976563-57.710937 57.710938-57.710937 3.152344 0 5.714844 2.5625 5.714844 5.710937 0 3.152344-2.5625 5.714844-5.714844 5.714844-25.488281 0-46.28125 20.78125-46.28125 46.285156zm46.28125-72.714844c-9.765625 0-19.628906 1.957032-28.832031 5.917969 5.367187-10.789062 16.507812-18.21875 29.351562-18.21875 18.066407 0 32.765625 14.699219 32.765625 32.765625s-14.699218 32.761719-32.765625 32.761719c-6.75 0-13.292969-2.097656-18.75-5.902344 5.332031-3.839843 11.710938-5.890625 18.230469-5.890625 11.421875 0 20.714844-9.292968 20.714844-20.714844 0-11.425781-9.292969-20.71875-20.714844-20.71875zm.519531 80.15625c-11.34375 0-22.242187-3.15625-31.753906-9.15625.230469-4.152343 1.257813-8.253906 3.25-12.234374 8.179687 6.082031 18.171875 9.460937 28.503906 9.460937 26.339844 0 47.765625-21.425781 47.765625-47.765625 0-26.335938-21.425781-47.761719-47.765625-47.761719-25.269531 0-46.007812 19.726563-47.648437 44.59375-4.214844 3.59375-8.03125 7.683594-11.363282 12.21875-.453124-2.976562-.679687-5.996093-.679687-9.050781 0-32.914062 26.777344-59.691406 59.691406-59.691406 32.914063 0 59.691407 26.777344 59.691407 59.691406.003906 32.917969-26.773438 59.695312-59.691407 59.695312zm0 0"/></svg>